<svg xmlns="http://www.w3.org/2000/svg" width="282.918" height="282.918" viewBox="0 0 282.918 282.918">
  <g id="Raggruppa_715" data-name="Raggruppa 715" transform="translate(17053.93 24480.459)">
    <g id="Raggruppa_709" data-name="Raggruppa 709" transform="translate(-18547.264 -25225.455)">
      <g id="Raggruppa_688" data-name="Raggruppa 688" opacity="0">
        <circle id="Ellisse_147" data-name="Ellisse 147" cx="141.459" cy="141.459" r="141.459" transform="translate(1493.333 744.995)" fill="red"/>
      </g>
      <g id="Raggruppa_692" data-name="Raggruppa 692">
        <g id="Raggruppa_691" data-name="Raggruppa 691">
          <g id="Raggruppa_690" data-name="Raggruppa 690">
            <path id="Tracciato_822" data-name="Tracciato 822" d="M1518.026,884.712c-5.068-.368-7.919-3.019-7.593-7.514.269-3.715,2.525-5.88,5.972-6.045l-.183,2.523a3.843,3.843,0,0,0-3.771,3.669c-.2,2.821,1.953,4.545,5.806,4.824,3.807.276,6.191-1.119,6.4-3.985.189-2.615-1.6-3.944-4.414-4.309l-.32,4.4-1.651-.12.5-6.858,8.164.593-.133,1.834-1.468-.106-1.448-.382-.025.344a4.892,4.892,0,0,1,2.785,5.159C1526.344,882.871,1523.095,885.079,1518.026,884.712Z" fill="#fff"/>
            <path id="Tracciato_823" data-name="Tracciato 823" d="M1511.9,865.842l2.085-10.089,1.959.4-1.615,7.815,4.707.973,1.382-6.689,1.87.386-1.382,6.689,5.045,1.043,1.638-7.928,1.959.405-2.108,10.2Z" fill="#fff"/>
            <path id="Tracciato_824" data-name="Tracciato 824" d="M1518.227,848.932l-1.486,4.473-1.964-.652,3.7-11.128,1.964.652-1.479,4.451,13.092,4.349-.732,2.2Z" fill="#fff"/>
            <path id="Tracciato_825" data-name="Tracciato 825" d="M1522.33,832.989l1.081-2.211,14.256,6.97-1.081,2.211Z" fill="#fff"/>
            <path id="Tracciato_826" data-name="Tracciato 826" d="M1525.588,826.312l1.43-2.306,13.26-.006,1.086.213.206-.332-1.03-.476-9.524-5.849,1.175-1.9,13.487,8.359-1.417,2.287-13.249-.014-1.086-.213-.206.333,1.019.5,9.523,5.849-1.187,1.915Z" fill="#fff"/>
            <path id="Tracciato_827" data-name="Tracciato 827" d="M1542.819,805.637l-3.147,3.512-1.542-1.381,7.829-8.739,1.542,1.381-3.132,3.5,10.282,9.21-1.551,1.731Z" fill="#fff"/>
            <path id="Tracciato_828" data-name="Tracciato 828" d="M1553,803.122c-3.369-3.865-3.525-7.755-.11-10.73s7.213-2.292,10.6,1.591c3.354,3.848,3.577,7.71.128,10.716C1560.185,807.69,1556.355,806.97,1553,803.122Zm9.27.034c2.219-1.934,1.8-4.586-.724-7.481-2.553-2.93-5.111-3.659-7.312-1.741-2.184,1.9-1.83,4.584.707,7.5C1557.5,804.36,1560.106,805.044,1562.272,803.156Z" fill="#fff"/>
            <path id="Tracciato_829" data-name="Tracciato 829" d="M1567.34,792.992l-5.1-7.907,2.107-1.359,5.186,8.042c1.571,2.436,3.4,2.981,5.43,1.672s2.308-3.212.737-5.648l-5.186-8.043,2.049-1.321,5.1,7.907c2.344,3.634,1.83,6.785-1.515,8.942C1572.765,797.458,1569.671,796.607,1567.34,792.992Z" fill="#fff"/>
            <path id="Tracciato_830" data-name="Tracciato 830" d="M1580.148,783.283c-2.15-4.683-1.2-8.46,2.9-10.341,3.387-1.555,6.383-.652,8.264,2.508l-2.383,1.095c-1.275-1.9-3.086-2.532-5.009-1.649-2.53,1.161-3.009,3.811-1.416,7.281,1.6,3.491,3.916,4.834,6.445,3.673,1.944-.893,2.642-2.681,2.036-4.883l2.362-1.085c1.161,3.466-.056,6.328-3.485,7.9C1585.74,789.675,1582.269,787.9,1580.148,783.283Z" fill="#fff"/>
            <path id="Tracciato_831" data-name="Tracciato 831" d="M1605.448,774.679l-7.011,2.077,1.946,6.571-2.381.7-4.507-15.214,2.382-.705,1.959,6.614,7.011-2.076-1.959-6.615,2.382-.705,4.506,15.214-2.381.705Z" fill="#fff"/>
            <path id="Tracciato_832" data-name="Tracciato 832" d="M1611.157,771.018l-1.288-6.64,2.259-.437,1.287,6.639.432,4.158-1.536.3Zm.99,5.83,2.484-.482.6,3.211-2.461.478Z" fill="#fff"/>
            <path id="Tracciato_833" data-name="Tracciato 833" d="M1622.515,770.532a2.37,2.37,0,1,1,2.565,2.207A2.247,2.247,0,0,1,1622.515,770.532Z" fill="#fff"/>
            <path id="Tracciato_834" data-name="Tracciato 834" d="M1636.023,769.679c.344-5.072,2.982-7.936,7.48-7.631,3.717.252,5.894,2.5,6.075,5.945l-2.525-.171a3.843,3.843,0,0,0-3.687-3.755c-2.823-.191-4.538,1.975-4.8,5.831-.258,3.809,1.148,6.187,4.017,6.381,2.616.178,3.937-1.623,4.289-4.435l-4.406-.3.112-1.652,6.861.465-.553,8.17-1.836-.124.1-1.469.375-1.45-.344-.023a4.894,4.894,0,0,1-5.147,2.809C1637.9,777.991,1635.679,774.751,1636.023,769.679Z" fill="#fff"/>
            <path id="Tracciato_835" data-name="Tracciato 835" d="M1654.86,763.48l10.1,2.044-.4,1.961-7.82-1.584-.954,4.711,6.694,1.355-.379,1.87-6.694-1.355-1.021,5.049,7.933,1.606-.4,1.96-10.21-2.066Z" fill="#fff"/>
            <path id="Tracciato_836" data-name="Tracciato 836" d="M1671.807,769.718l-4.483-1.467.645-1.968,11.151,3.65-.644,1.967-4.461-1.459-4.294,13.119-2.208-.723Z" fill="#fff"/>
            <path id="Tracciato_837" data-name="Tracciato 837" d="M1687.738,773.748l2.215,1.07-6.9,14.287-2.215-1.069Z" fill="#fff"/>
            <path id="Tracciato_838" data-name="Tracciato 838" d="M1694.42,776.965l2.314,1.419.069,13.263-.207,1.086.333.205.471-1.033,5.8-9.553,1.9,1.166-8.3,13.529-2.294-1.407-.049-13.251.207-1.086-.333-.2-.491,1.021-5.8,9.553-1.922-1.178Z" fill="#fff"/>
            <path id="Tracciato_839" data-name="Tracciato 839" d="M1715.195,794.123l-3.526-3.131,1.375-1.548,8.77,7.79-1.374,1.547-3.508-3.116-9.164,10.318-1.737-1.542Z" fill="#fff"/>
            <path id="Tracciato_840" data-name="Tracciato 840" d="M1717.758,804.291c3.852-3.386,7.742-3.559,10.733-.157s2.322,7.206-1.547,10.607c-3.835,3.37-7.7,3.61-10.717.173C1713.221,811.494,1713.924,807.661,1717.758,804.291Zm.006,9.272c1.944,2.211,4.595,1.779,7.479-.757,2.92-2.566,3.638-5.127,1.71-7.32-1.912-2.177-4.592-1.811-7.494.739C1716.54,808.791,1715.866,811.4,1717.764,813.563Z" fill="#fff"/>
            <path id="Tracciato_841" data-name="Tracciato 841" d="M1727.948,818.579l7.883-5.136,1.368,2.1-8.017,5.224c-2.428,1.583-2.964,3.415-1.645,5.438s3.223,2.293,5.652.71l8.017-5.224,1.331,2.043-7.883,5.136c-3.623,2.361-6.776,1.862-8.948-1.472C1723.508,824.026,1724.345,820.927,1727.948,818.579Z" fill="#fff"/>
            <path id="Tracciato_842" data-name="Tracciato 842" d="M1737.714,831.336c4.673-2.174,8.454-1.244,10.357,2.845,1.572,3.379.684,6.38-2.467,8.277l-1.106-2.377c1.888-1.285,2.516-3.1,1.623-5.019-1.174-2.523-3.827-2.989-7.289-1.378-3.484,1.62-4.815,3.94-3.641,6.464.9,1.939,2.695,2.628,4.894,2.011l1.1,2.357c-3.461,1.179-6.329-.024-7.921-3.445C1731.349,836.962,1733.1,833.481,1737.714,831.336Z" fill="#fff"/>
            <path id="Tracciato_843" data-name="Tracciato 843" d="M1746.434,856.593l-2.111-7-6.561,1.978-.718-2.378,15.193-4.58.717,2.378-6.6,1.991,2.11,7,6.606-1.991.717,2.378-15.193,4.58-.717-2.378Z" fill="#fff"/>
            <path id="Tracciato_844" data-name="Tracciato 844" d="M1744.292,863.295l.493,2.481-3.207.615-.489-2.459Zm5.822-1.017,6.631-1.319.448,2.255-6.63,1.319-4.154.451-.305-1.533Z" fill="#fff"/>
            <path id="Tracciato_845" data-name="Tracciato 845" d="M1750.656,873.647a2.369,2.369,0,1,1-2.194,2.574A2.246,2.246,0,0,1,1750.656,873.647Z" fill="#fff"/>
            <path id="Tracciato_846" data-name="Tracciato 846" d="M1751.57,887.126c5.072.321,7.948,2.945,7.663,7.443-.234,3.717-2.469,5.9-5.915,6.1l.16-2.525a3.843,3.843,0,0,0,3.736-3.7c.178-2.823-1.995-4.527-5.851-4.77-3.809-.241-6.18,1.176-6.361,4.045-.165,2.616,1.641,3.928,4.454,4.267l.278-4.406,1.653.1-.434,6.862-8.17-.516.116-1.836,1.469.093,1.451.368.022-.344a4.892,4.892,0,0,1-2.832-5.133C1743.27,889.044,1746.5,886.806,1751.57,887.126Z" fill="#fff"/>
            <path id="Tracciato_847" data-name="Tracciato 847" d="M1757.865,905.947l-2,10.11-1.963-.387,1.546-7.831-4.717-.931-1.323,6.7-1.873-.37,1.323-6.7-5.055-1-1.568,7.944-1.964-.388,2.019-10.223Z" fill="#fff"/>
            <path id="Tracciato_848" data-name="Tracciato 848" d="M1751.7,922.927l1.446-4.489,1.97.634-3.595,11.168-1.971-.635,1.438-4.467-13.138-4.229.713-2.212Z" fill="#fff"/>
            <path id="Tracciato_849" data-name="Tracciato 849" d="M1747.738,938.889l-1.059,2.22-14.319-6.833,1.059-2.221Z" fill="#fff"/>
            <path id="Tracciato_850" data-name="Tracciato 850" d="M1744.556,945.586l-1.408,2.321-13.265.132-1.088-.2-.2.334,1.035.467,9.583,5.76-1.157,1.907-13.572-8.233,1.4-2.3,13.253-.113,1.088.2.2-.335-1.024-.486-9.583-5.76,1.17-1.927Z" fill="#fff"/>
            <path id="Tracciato_851" data-name="Tracciato 851" d="M1727.49,966.444l3.115-3.541,1.555,1.367-7.751,8.81-1.554-1.368,3.1-3.524-10.364-9.118,1.535-1.745Z" fill="#fff"/>
            <path id="Tracciato_852" data-name="Tracciato 852" d="M1717.329,969.047c3.4,3.835,3.594,7.722.206,10.728s-7.192,2.356-10.61-1.5c-3.387-3.818-3.646-7.677-.224-10.713C1710.106,964.544,1713.941,965.229,1717.329,969.047Zm-9.269.049c-2.2,1.953-1.757,4.6.791,7.474,2.579,2.906,5.142,3.613,7.326,1.675,2.167-1.923,1.789-4.6-.774-7.489C1712.824,967.85,1710.209,967.189,1708.06,969.1Z" fill="#fff"/>
            <path id="Tracciato_853" data-name="Tracciato 853" d="M1703.085,979.3l5.168,7.858-2.094,1.377-5.256-7.992c-1.591-2.42-3.425-2.948-5.442-1.622s-2.278,3.232-.686,5.653l5.256,7.991-2.036,1.339-5.168-7.857c-2.375-3.611-1.89-6.765,1.434-8.951C1697.623,974.885,1700.723,975.708,1703.085,979.3Z" fill="#fff"/>
            <path id="Tracciato_854" data-name="Tracciato 854" d="M1690.377,989.123c2.2,4.662,1.282,8.448-2.8,10.368-3.372,1.587-6.377.713-8.288-2.43l2.373-1.116c1.293,1.883,3.11,2.5,5.024,1.6,2.519-1.186,2.973-3.84,1.347-7.3-1.636-3.476-3.962-4.8-6.48-3.611-1.935.911-2.616,2.706-1.989,4.9l-2.352,1.107c-1.194-3.455,0-6.328,3.409-7.935C1684.725,982.784,1688.213,984.524,1690.377,989.123Z" fill="#fff"/>
            <path id="Tracciato_855" data-name="Tracciato 855" d="M1665.147,997.959l6.992-2.139-2.006-6.553,2.375-.727,4.643,15.172-2.375.727-2.018-6.6-6.992,2.14,2.018,6.6-2.374.726-4.643-15.171,2.374-.727Z" fill="#fff"/>
            <path id="Tracciato_856" data-name="Tracciato 856" d="M1658.42,995.854l-2.479.5-.627-3.2,2.456-.5Zm1.041,5.819,1.346,6.626-2.254.458-1.345-6.626-.468-4.152,1.532-.312Z" fill="#fff"/>
            <path id="Tracciato_857" data-name="Tracciato 857" d="M1648.124,1002.262a2.37,2.37,0,1,1-2.583-2.185A2.247,2.247,0,0,1,1648.124,1002.262Z" fill="#fff"/>
            <path id="Tracciato_858" data-name="Tracciato 858" d="M1634.63,1003.237c-.3,5.075-2.913,7.962-7.414,7.7-3.721-.22-5.916-2.447-6.127-5.893l2.526.149a3.843,3.843,0,0,0,3.72,3.723c2.825.167,4.521-2.014,4.749-5.872.225-3.812-1.2-6.178-4.072-6.348-2.618-.155-3.924,1.658-4.251,4.473l4.409.261-.1,1.653-6.866-.406.483-8.175,1.837.108-.087,1.47-.362,1.454.344.02a4.893,4.893,0,0,1,5.123-2.854C1632.678,994.94,1634.93,998.161,1634.63,1003.237Z" fill="#fff"/>
            <path id="Tracciato_859" data-name="Tracciato 859" d="M1615.856,1009.611l-10.117-1.948.378-1.965,7.837,1.509.909-4.72-6.707-1.292.36-1.874,6.708,1.292.974-5.059-7.949-1.531.378-1.964,10.23,1.97Z" fill="#fff"/>
            <path id="Tracciato_860" data-name="Tracciato 860" d="M1598.864,1003.527l4.494,1.423-.624,1.974-11.183-3.541.625-1.973,4.473,1.416,4.165-13.156,2.215.7Z" fill="#fff"/>
            <path id="Tracciato_861" data-name="Tracciato 861" d="M1582.871,999.639l-2.225-1.05,6.769-14.35,2.226,1.05Z" fill="#fff"/>
            <path id="Tracciato_862" data-name="Tracciato 862" d="M1576.161,996.48l-2.327-1.4-.191-13.26.2-1.088-.335-.2-.462,1.037-5.715,9.6-1.912-1.148,8.17-13.6,2.306,1.385.172,13.248-.2,1.088.335.2.482-1.026,5.715-9.6,1.932,1.16Z" fill="#fff"/>
            <path id="Tracciato_863" data-name="Tracciato 863" d="M1555.222,979.507l3.554,3.1-1.361,1.56-8.841-7.712,1.362-1.56,3.536,3.084,9.072-10.4,1.751,1.527Z" fill="#fff"/>
            <path id="Tracciato_864" data-name="Tracciato 864" d="M1552.57,969.361c-3.821,3.42-7.709,3.628-10.73.252s-2.386-7.184,1.452-10.619c3.8-3.4,7.663-3.679,10.714-.269C1557.043,962.118,1556.374,965.957,1552.57,969.361Zm-.089-9.271c-1.963-2.193-4.61-1.738-7.471.823-2.9,2.592-3.592,5.159-1.645,7.335,1.932,2.159,4.608,1.77,7.487-.806C1553.748,964.85,1554.4,962.232,1552.481,960.09Z" fill="#fff"/>
            <path id="Tracciato_865" data-name="Tracciato 865" d="M1542.253,955.166l-7.839,5.2-1.387-2.089,7.973-5.294c2.415-1.6,2.935-3.44,1.6-5.452s-3.244-2.265-5.659-.661l-7.972,5.294-1.349-2.032,7.838-5.205c3.6-2.392,6.761-1.921,8.962,1.4C1546.646,949.681,1545.837,952.787,1542.253,955.166Z" fill="#fff"/>
            <path id="Tracciato_866" data-name="Tracciato 866" d="M1532.379,942.505c-4.651,2.215-8.441,1.319-10.379-2.752-1.6-3.364-.741-6.372,2.393-8.3l1.127,2.367c-1.877,1.3-2.488,3.121-1.579,5.032,1.2,2.513,3.853,2.955,7.3,1.313,3.468-1.651,4.779-3.982,3.582-6.494-.919-1.932-2.717-2.6-4.91-1.968l-1.118-2.346c3.45-1.21,6.328-.033,7.95,3.373C1538.693,936.824,1536.969,940.32,1532.379,942.505Z" fill="#fff"/>
            <path id="Tracciato_867" data-name="Tracciato 867" d="M1523.426,917.324l2.174,6.982,6.543-2.037.738,2.371-15.15,4.717-.739-2.371,6.588-2.051-2.174-6.982-6.587,2.05-.739-2.371,15.151-4.717.738,2.372Z" fill="#fff"/>
            <path id="Tracciato_868" data-name="Tracciato 868" d="M1519.687,911.661l-6.621,1.378-.469-2.253,6.622-1.377,4.151-.487.319,1.531Zm5.816-1.069-.515-2.477,3.2-.643.511,2.455Z" fill="#fff"/>
            <path id="Tracciato_869" data-name="Tracciato 869" d="M1519.048,900.315a2.369,2.369,0,1,1,2.172-2.593A2.246,2.246,0,0,1,1519.048,900.315Z" fill="#fff"/>
          </g>
        </g>
      </g>
    </g>
  </g>
</svg>
